<svg version="1.1" id="Layer_1" xmlns="http://www.w3.org/2000/svg" xmlns:xlink="http://www.w3.org/1999/xlink" x="0px" y="0px"
	 width="100%" viewBox="0 0 500 500" enable-background="new 0 0 500 500" xml:space="preserve" fill="none">
<path fill="#000000" opacity="0.000000" stroke="none" 
	d="
M262.000000,501.000000 
	C174.666687,501.000000 87.833374,501.000000 1.000046,501.000000 
	C1.000031,334.333405 1.000031,167.666794 1.000015,1.000136 
	C167.666565,1.000091 334.333130,1.000091 500.999756,1.000045 
	C500.999847,167.666519 500.999847,334.333038 500.999939,500.999786 
	C421.500000,501.000000 342.000000,501.000000 262.000000,501.000000 
M70.968674,261.540100 
	C79.593544,269.472870 88.284348,277.335388 96.827858,285.354828 
	C109.666000,297.405457 122.395256,309.572021 135.181427,321.678070 
	C147.447845,333.292053 159.754227,344.863922 171.994904,356.504913 
	C186.642807,370.435181 201.246109,384.412445 215.856110,398.382538 
	C223.881500,406.056458 231.827347,413.814423 239.910019,421.427307 
	C245.788605,426.964111 255.276672,427.346954 261.326965,422.082794 
	C269.161163,415.266510 276.837036,408.258850 284.391205,401.132294 
	C293.976959,392.089111 303.350403,382.821259 312.857269,373.693878 
	C318.870636,367.920532 324.976776,362.243896 331.007568,356.488556 
	C333.334412,354.268005 335.479553,351.852020 337.861664,349.695404 
	C343.962646,344.172028 350.273102,338.875488 356.277893,333.251312 
	C369.330017,321.026550 382.224548,308.633698 395.220001,296.348175 
	C406.279694,285.892700 417.454559,275.558441 428.460754,265.047272 
	C439.593536,254.415176 449.070648,242.581848 455.353210,228.318802 
	C463.530731,209.753677 466.957825,190.599670 464.096069,170.375061 
	C460.394684,144.216461 448.873566,122.391899 429.234161,104.614143 
	C415.037262,91.763016 398.722351,83.803558 380.144501,79.339653 
	C367.757263,76.363228 355.363251,76.670258 343.078217,77.394722 
	C335.004547,77.870827 327.093597,81.531448 319.164154,83.944504 
	C299.455750,89.942070 285.212280,103.635315 271.445343,117.999023 
	C264.860809,124.869003 258.159760,131.627335 251.333481,138.618530 
	C249.498367,136.873062 248.184479,135.646637 246.895935,134.394150 
	C234.935287,122.768188 223.455795,110.588943 210.884247,99.666481 
	C198.864685,89.223595 184.331192,82.988655 168.617920,80.046570 
	C159.487778,78.337074 150.451965,76.080566 140.871475,77.849586 
	C132.825165,79.335327 124.205544,78.327820 116.422302,80.505890 
	C97.092705,85.915054 80.028946,96.000061 66.209435,110.600037 
	C55.379410,122.041702 47.553829,135.684265 43.032696,150.870636 
	C38.753796,165.243362 36.991463,179.807114 38.708885,195.020935 
	C40.028728,206.712738 42.699467,217.933609 47.416142,228.380814 
	C52.922604,240.577438 60.780895,251.556244 70.968674,261.540100 
z"/>
<path fill="#029FDB" opacity="1.000000" stroke="none" 
	d="
M70.723236,261.278076 
	C60.780895,251.556244 52.922604,240.577438 47.416142,228.380814 
	C42.699467,217.933609 40.028728,206.712738 38.708885,195.020935 
	C36.991463,179.807114 38.753796,165.243362 43.032696,150.870636 
	C47.553829,135.684265 55.379410,122.041702 66.209435,110.600037 
	C80.028946,96.000061 97.092705,85.915054 116.422302,80.505890 
	C124.205544,78.327820 132.825165,79.335327 140.871475,77.849586 
	C150.451965,76.080566 159.487778,78.337074 168.617920,80.046570 
	C184.331192,82.988655 198.864685,89.223595 210.884247,99.666481 
	C223.455795,110.588943 234.935287,122.768188 246.895935,134.394150 
	C248.184479,135.646637 249.498367,136.873062 251.333481,138.618530 
	C258.159760,131.627335 264.860809,124.869003 271.445343,117.999023 
	C285.212280,103.635315 299.455750,89.942070 319.164154,83.944504 
	C327.093597,81.531448 335.004547,77.870827 343.078217,77.394722 
	C355.363251,76.670258 367.757263,76.363228 380.144501,79.339653 
	C398.722351,83.803558 415.037262,91.763016 429.234161,104.614143 
	C448.873566,122.391899 460.394684,144.216461 464.096069,170.375061 
	C466.957825,190.599670 463.530731,209.753677 455.353210,228.318802 
	C449.070648,242.581848 439.593536,254.415176 428.460754,265.047272 
	C417.454559,275.558441 406.279694,285.892700 395.220001,296.348175 
	C382.224548,308.633698 369.330017,321.026550 356.277893,333.251312 
	C350.273102,338.875488 343.962646,344.172028 337.861664,349.695404 
	C335.479553,351.852020 333.334412,354.268005 331.007568,356.488556 
	C324.976776,362.243896 318.870636,367.920532 312.857269,373.693878 
	C303.350403,382.821259 293.976959,392.089111 284.391205,401.132294 
	C276.837036,408.258850 269.161163,415.266510 261.326965,422.082794 
	C255.276672,427.346954 245.788605,426.964111 239.910019,421.427307 
	C231.827347,413.814423 223.881500,406.056458 215.856110,398.382538 
	C201.246109,384.412445 186.642807,370.435181 171.994904,356.504913 
	C159.754227,344.863922 147.447845,333.292053 135.181427,321.678070 
	C122.395256,309.572021 109.666000,297.405457 96.827858,285.354828 
	C88.284348,277.335388 79.593544,269.472870 70.723236,261.278076 
M238.026932,196.193161 
	C237.681503,193.937195 237.161316,191.692139 237.019684,189.423447 
	C236.237305,176.891724 233.196411,164.837662 227.211273,153.919662 
	C216.512009,134.402237 201.557541,119.439667 180.485229,110.546448 
	C164.905029,103.971085 148.978104,102.373848 132.961853,105.371460 
	C113.830635,108.952080 97.934410,119.022263 85.248207,134.144241 
	C69.582268,152.818085 65.530350,174.611069 67.133522,198.043671 
	C67.248566,199.725113 68.604790,202.196869 69.960266,202.678253 
	C71.387451,203.185104 73.875397,202.174896 75.221123,201.029861 
	C76.580437,199.873260 77.417763,197.827332 77.936668,196.014420 
	C79.139725,191.811188 79.811531,187.453674 81.056984,183.265259 
	C84.870941,170.438965 90.411499,158.403717 100.399284,149.221649 
	C114.469215,136.286743 131.685333,131.042557 150.396072,132.598160 
	C167.375778,134.009857 181.355194,142.660049 190.727325,156.707764 
	C200.691437,171.642746 205.465500,188.685989 204.907043,206.834213 
	C204.741852,212.202240 203.464310,217.536041 202.497589,224.271408 
	C200.907150,222.246048 200.438736,221.619476 199.939529,221.018463 
	C194.447586,214.406448 188.473816,208.451645 180.076080,205.511429 
	C177.071075,204.459305 175.843460,205.600449 176.078369,208.382706 
	C176.323151,211.281738 176.894211,214.177658 177.587662,217.010040 
	C180.092300,227.239990 178.245422,230.735458 168.414124,233.855637 
	C166.873352,234.344635 165.264801,234.616898 163.694443,235.016357 
	C146.599747,239.364670 130.310089,245.702087 115.298019,255.040787 
	C108.588379,259.214691 108.190659,262.890717 113.859070,268.290222 
	C123.072334,277.066376 132.618622,285.495758 141.744110,294.359985 
	C145.766052,298.266785 150.252731,300.501709 155.670349,301.640289 
	C163.694168,303.326630 171.205902,306.802673 176.378326,313.142365 
	C183.446930,321.806091 189.594772,331.225098 196.067932,340.369446 
	C202.490082,349.441742 211.171234,352.714844 221.779999,349.931549 
	C227.134903,348.526611 230.269272,345.307526 229.947525,340.894867 
	C229.446716,334.026306 228.980026,327.119690 227.835678,320.341156 
	C225.485580,306.420197 227.657730,292.720123 229.505859,279.048492 
	C232.085205,259.967560 235.250809,240.965836 238.810959,221.397278 
	C238.595947,213.285568 238.380951,205.173859 238.026932,196.193161 
M300.988525,182.582611 
	C304.679169,168.768875 309.773743,156.057861 321.094421,146.094116 
	C334.301849,134.469803 349.393524,131.560394 366.026367,133.024429 
	C375.078522,133.821228 383.306000,137.120499 391.204681,141.566147 
	C403.231537,148.335236 411.655151,158.376083 416.880310,170.795929 
	C420.569641,179.565201 422.866028,188.939392 425.491272,198.127243 
	C426.407043,201.332230 428.353699,203.531281 431.207123,202.725510 
	C433.147003,202.177704 435.725006,199.224045 435.743500,197.324127 
	C435.836670,187.746262 436.411194,177.912689 434.533356,168.630798 
	C430.737915,149.870438 420.989166,134.216537 405.753693,122.260880 
	C392.093597,111.541481 376.792694,104.855118 359.306549,104.048042 
	C343.508148,103.318855 328.503571,106.582542 314.532990,114.160004 
	C300.849121,121.581985 289.658813,131.881332 281.134338,144.786316 
	C269.770050,161.990402 265.043671,181.360367 265.116425,201.781326 
	C265.161041,214.308365 266.016052,226.858994 267.103699,239.347076 
	C267.910461,248.609436 269.614258,257.797852 271.032837,267.001587 
	C272.624329,277.326996 275.536377,287.612335 275.711823,297.951813 
	C275.939545,311.372528 273.902832,324.822113 273.150085,338.276581 
	C272.986664,341.197540 273.152191,345.083008 274.870911,346.978729 
	C279.320221,351.886292 289.085754,352.545837 295.149750,349.383972 
	C304.755402,344.375366 310.243927,335.457153 315.817596,326.866882 
	C322.505005,316.560242 329.646790,307.092621 341.852936,302.928223 
	C346.590424,301.311920 351.777466,300.367554 355.894928,297.754425 
	C360.349701,294.927185 363.736816,290.446167 367.692566,286.798126 
	C375.266602,279.813263 382.839752,272.823883 390.563324,266.006378 
	C394.093170,262.890656 393.561493,259.846100 390.555084,257.244446 
	C387.756165,254.822342 384.518372,252.780334 381.204987,251.101395 
	C365.355835,243.070419 348.880280,236.680069 331.439331,233.016861 
	C326.932831,232.070328 324.401520,229.779129 325.004486,224.912064 
	C325.605591,220.059937 326.354706,215.222855 326.807556,210.357620 
	C326.949677,208.830719 326.718201,206.982208 325.912231,205.781128 
	C325.537872,205.223206 323.282959,205.578369 322.047516,206.004166 
	C314.493469,208.607620 309.014832,213.959839 304.035217,219.931396 
	C303.195618,220.938263 302.331390,221.924652 300.898499,223.597763 
	C297.441315,209.442566 297.366333,196.440353 300.988525,182.582611 
z"/>
<path fill="#FFFFFF" opacity="1.000000" stroke="none" 
	d="
M238.165527,221.930222 
	C235.250809,240.965836 232.085205,259.967560 229.505859,279.048492 
	C227.657730,292.720123 225.485580,306.420197 227.835678,320.341156 
	C228.980026,327.119690 229.446716,334.026306 229.947525,340.894867 
	C230.269272,345.307526 227.134903,348.526611 221.779999,349.931549 
	C211.171234,352.714844 202.490082,349.441742 196.067932,340.369446 
	C189.594772,331.225098 183.446930,321.806091 176.378326,313.142365 
	C171.205902,306.802673 163.694168,303.326630 155.670349,301.640289 
	C150.252731,300.501709 145.766052,298.266785 141.744110,294.359985 
	C132.618622,285.495758 123.072334,277.066376 113.859070,268.290222 
	C108.190659,262.890717 108.588379,259.214691 115.298019,255.040787 
	C130.310089,245.702087 146.599747,239.364670 163.694443,235.016357 
	C165.264801,234.616898 166.873352,234.344635 168.414124,233.855637 
	C178.245422,230.735458 180.092300,227.239990 177.587662,217.010040 
	C176.894211,214.177658 176.323151,211.281738 176.078369,208.382706 
	C175.843460,205.600449 177.071075,204.459305 180.076080,205.511429 
	C188.473816,208.451645 194.447586,214.406448 199.939529,221.018463 
	C200.438736,221.619476 200.907150,222.246048 202.497589,224.271408 
	C203.464310,217.536041 204.741852,212.202240 204.907043,206.834213 
	C205.465500,188.685989 200.691437,171.642746 190.727325,156.707764 
	C181.355194,142.660049 167.375778,134.009857 150.396072,132.598160 
	C131.685333,131.042557 114.469215,136.286743 100.399284,149.221649 
	C90.411499,158.403717 84.870941,170.438965 81.056984,183.265259 
	C79.811531,187.453674 79.139725,191.811188 77.936668,196.014420 
	C77.417763,197.827332 76.580437,199.873260 75.221123,201.029861 
	C73.875397,202.174896 71.387451,203.185104 69.960266,202.678253 
	C68.604790,202.196869 67.248566,199.725113 67.133522,198.043671 
	C65.530350,174.611069 69.582268,152.818085 85.248207,134.144241 
	C97.934410,119.022263 113.830635,108.952080 132.961853,105.371460 
	C148.978104,102.373848 164.905029,103.971085 180.485229,110.546448 
	C201.557541,119.439667 216.512009,134.402237 227.211273,153.919662 
	C233.196411,164.837662 236.237305,176.891724 237.019684,189.423447 
	C237.161316,191.692139 237.681503,193.937195 238.025711,197.088837 
	C238.071503,205.966431 238.118515,213.948318 238.165527,221.930222 
M195.003937,288.958344 
	C201.508606,288.990326 206.098495,285.401703 205.994370,280.365448 
	C205.886200,275.134827 200.768539,270.809509 195.059326,272.223969 
	C192.398819,272.883148 189.116516,275.628082 188.296371,278.139618 
	C186.709030,283.000397 189.864029,286.506134 195.003937,288.958344 
z"/>
<path  fill="#FFFFFF" opacity="1.000000" stroke="none" 
	d="
M300.929626,183.005463 
	C297.366333,196.440353 297.441315,209.442566 300.898499,223.597763 
	C302.331390,221.924652 303.195618,220.938263 304.035217,219.931396 
	C309.014832,213.959839 314.493469,208.607620 322.047516,206.004166 
	C323.282959,205.578369 325.537872,205.223206 325.912231,205.781128 
	C326.718201,206.982208 326.949677,208.830719 326.807556,210.357620 
	C326.354706,215.222855 325.605591,220.059937 325.004486,224.912064 
	C324.401520,229.779129 326.932831,232.070328 331.439331,233.016861 
	C348.880280,236.680069 365.355835,243.070419 381.204987,251.101395 
	C384.518372,252.780334 387.756165,254.822342 390.555084,257.244446 
	C393.561493,259.846100 394.093170,262.890656 390.563324,266.006378 
	C382.839752,272.823883 375.266602,279.813263 367.692566,286.798126 
	C363.736816,290.446167 360.349701,294.927185 355.894928,297.754425 
	C351.777466,300.367554 346.590424,301.311920 341.852936,302.928223 
	C329.646790,307.092621 322.505005,316.560242 315.817596,326.866882 
	C310.243927,335.457153 304.755402,344.375366 295.149750,349.383972 
	C289.085754,352.545837 279.320221,351.886292 274.870911,346.978729 
	C273.152191,345.083008 272.986664,341.197540 273.150085,338.276581 
	C273.902832,324.822113 275.939545,311.372528 275.711823,297.951813 
	C275.536377,287.612335 272.624329,277.326996 271.032837,267.001587 
	C269.614258,257.797852 267.910461,248.609436 267.103699,239.347076 
	C266.016052,226.858994 265.161041,214.308365 265.116425,201.781326 
	C265.043671,181.360367 269.770050,161.990402 281.134338,144.786316 
	C289.658813,131.881332 300.849121,121.581985 314.532990,114.160004 
	C328.503571,106.582542 343.508148,103.318855 359.306549,104.048042 
	C376.792694,104.855118 392.093597,111.541481 405.753693,122.260880 
	C420.989166,134.216537 430.737915,149.870438 434.533356,168.630798 
	C436.411194,177.912689 435.836670,187.746262 435.743500,197.324127 
	C435.725006,199.224045 433.147003,202.177704 431.207123,202.725510 
	C428.353699,203.531281 426.407043,201.332230 425.491272,198.127243 
	C422.866028,188.939392 420.569641,179.565201 416.880310,170.795929 
	C411.655151,158.376083 403.231537,148.335236 391.204681,141.566147 
	C383.306000,137.120499 375.078522,133.821228 366.026367,133.024429 
	C349.393524,131.560394 334.301849,134.469803 321.094421,146.094116 
	C309.773743,156.057861 304.679169,168.768875 300.929626,183.005463 
M313.677856,276.125427 
	C310.533478,272.399628 306.672974,270.767731 301.938324,272.564880 
	C297.807373,274.132843 295.467346,279.869080 297.196472,283.639648 
	C298.981873,287.532990 305.009949,290.057159 308.944794,288.559113 
	C314.357880,286.498352 316.068878,282.538330 313.677856,276.125427 
z"/>
<path fill="#F7FCFE" opacity="1.000000" stroke="none" 
	d="
M238.488251,221.663757 
	C238.118515,213.948318 238.071503,205.966431 238.095215,197.523346 
	C238.380951,205.173859 238.595947,213.285568 238.488251,221.663757 
z"/>
<path fill="#059FDB" opacity="1.000000" stroke="none" 
	d="
M194.619904,288.840759 
	C189.864029,286.506134 186.709030,283.000397 188.296371,278.139618 
	C189.116516,275.628082 192.398819,272.883148 195.059326,272.223969 
	C200.768539,270.809509 205.886200,275.134827 205.994370,280.365448 
	C206.098495,285.401703 201.508606,288.990326 194.619904,288.840759 
z"/>
<path fill="#06A0DC" opacity="1.000000" stroke="none" 
	d="
M313.841644,276.486023 
	C316.068878,282.538330 314.357880,286.498352 308.944794,288.559113 
	C305.009949,290.057159 298.981873,287.532990 297.196472,283.639648 
	C295.467346,279.869080 297.807373,274.132843 301.938324,272.564880 
	C306.672974,270.767731 310.533478,272.399628 313.841644,276.486023 
z"/>
</svg>